<svg width="25" height="25" viewBox="0 0 25 25" fill="none" xmlns="http://www.w3.org/2000/svg">
<g clip-path="url(#clip0_313_781)">
<path d="M22.9297 3.4071H16.862C14.7743 3.4071 12.9601 4.85242 12.5043 6.89235C12.0443 4.85242 10.2344 3.4071 8.1467 3.4071H2.08333C0.93316 3.4071 0 4.34026 0 5.49044V16.1588C0 17.309 0.93316 18.2422 2.08333 18.2422H5.97656C10.4123 18.2422 11.7361 19.3012 12.3698 21.4974C12.4002 21.6189 12.5955 21.6189 12.6302 21.4974C13.2682 19.3012 14.592 18.2422 19.0234 18.2422H22.9167C24.0668 18.2422 25 17.309 25 16.1588V5.49478C25 4.34894 24.0755 3.41579 22.9297 3.4071ZM10.5035 14.9262C10.5035 15.0087 10.4384 15.0781 10.3516 15.0781H3.3941C3.31163 15.0781 3.24219 15.013 3.24219 14.9262V13.9323C3.24219 13.8498 3.30729 13.7804 3.3941 13.7804H10.3559C10.4384 13.7804 10.5078 13.8455 10.5078 13.9323V14.9262H10.5035ZM10.5035 12.283C10.5035 12.3654 10.4384 12.4349 10.3516 12.4349H3.3941C3.31163 12.4349 3.24219 12.3698 3.24219 12.283V11.289C3.24219 11.2066 3.30729 11.1371 3.3941 11.1371H10.3559C10.4384 11.1371 10.5078 11.2022 10.5078 11.289V12.283H10.5035ZM10.5035 9.63974C10.5035 9.72221 10.4384 9.79165 10.3516 9.79165H3.3941C3.31163 9.79165 3.24219 9.72655 3.24219 9.63974V8.64582C3.24219 8.56335 3.30729 8.49391 3.3941 8.49391H10.3559C10.4384 8.49391 10.5078 8.55901 10.5078 8.64582V9.63974H10.5035ZM21.7578 14.9219C21.7578 15.0043 21.6927 15.0738 21.6059 15.0738H14.6484C14.566 15.0738 14.4965 15.0087 14.4965 14.9219V13.9279C14.4965 13.8455 14.5616 13.776 14.6484 13.776H21.6102C21.6927 13.776 21.7622 13.8411 21.7622 13.9279V14.9219H21.7578ZM21.7578 12.2786C21.7578 12.3611 21.6927 12.4305 21.6059 12.4305H14.6484C14.566 12.4305 14.4965 12.3654 14.4965 12.2786V11.2847C14.4965 11.2022 14.5616 11.1328 14.6484 11.1328H21.6102C21.6927 11.1328 21.7622 11.1979 21.7622 11.2847V12.2786H21.7578ZM21.7578 9.6354C21.7578 9.71787 21.6927 9.78731 21.6059 9.78731H14.6484C14.566 9.78731 14.4965 9.72221 14.4965 9.6354V8.64582C14.4965 8.56335 14.5616 8.49391 14.6484 8.49391H21.6102C21.6927 8.49391 21.7622 8.55901 21.7622 8.64582V9.6354H21.7578Z" fill="#064789"/>
</g>
<defs>
<clipPath id="clip0_313_781">
<rect width="25" height="25" fill="white"/>
</clipPath>
</defs>
</svg>
