<svg width="25" height="25" viewBox="0 0 25 25" fill="none" xmlns="http://www.w3.org/2000/svg">
<g clip-path="url(#clip0_226_598)">
<path d="M22.6562 2.06251H16.7969L16.3379 1.14942C16.2407 0.954215 16.0909 0.79001 15.9054 0.675281C15.72 0.560553 15.5062 0.499852 15.2881 0.500009H9.70703C9.48944 0.499172 9.27602 0.559646 9.09121 0.674503C8.90641 0.789359 8.75769 0.953951 8.66211 1.14942L8.20312 2.06251H2.34375C2.13655 2.06251 1.93784 2.14482 1.79132 2.29133C1.64481 2.43784 1.5625 2.63656 1.5625 2.84376L1.5625 4.40626C1.5625 4.61346 1.64481 4.81217 1.79132 4.95869C1.93784 5.1052 2.13655 5.18751 2.34375 5.18751H22.6562C22.8635 5.18751 23.0622 5.1052 23.2087 4.95869C23.3552 4.81217 23.4375 4.61346 23.4375 4.40626V2.84376C23.4375 2.63656 23.3552 2.43784 23.2087 2.29133C23.0622 2.14482 22.8635 2.06251 22.6562 2.06251ZM4.16016 23.3027C4.19742 23.8978 4.46004 24.4562 4.89456 24.8644C5.32908 25.2727 5.90283 25.4999 6.49902 25.5H18.501C19.0972 25.4999 19.6709 25.2727 20.1054 24.8644C20.54 24.4562 20.8026 23.8978 20.8398 23.3027L21.875 6.75001H3.125L4.16016 23.3027Z" fill="#064789"/>
</g>
<defs>
<clipPath id="clip0_226_598">
<rect width="25" height="25" fill="white"/>
</clipPath>
</defs>
</svg>
