<svg width="25" height="26" viewBox="0 0 25 26" fill="none" xmlns="http://www.w3.org/2000/svg">
<rect y="0.5" width="25" height="25" rx="2" fill="#00247D"/>
<path d="M0 4.69495V6.87119L10.6153 13L0 19.1288V21.305L12.5 14.0881L25 21.305V19.1288L14.3847 13L25 6.87119V4.69495L12.5 11.9119L0 4.69495Z" fill="#CF142B"/>
<path d="M10.3502 0.5V10.8502H0V15.1497H10.3502V25.5H12.5758H14.6498V15.1497H25V10.8502H14.6498V0.5H12.5758H10.3502Z" fill="#CF142B"/>
<path d="M9.93217 0.5V9.94667L0 4.21225V5.17771L9.10101 10.4322H7.00393L0 6.38844V7.35396L5.33167 10.4322H0V11.2682H6.77982H8.45202H9.32146C9.8906 11.2682 10.2392 11.2445 10.7682 11.2445V10.4294V0.5H9.93217ZM14.2318 0.5V10.4294V11.2718C14.742 11.2718 15.2177 11.2682 15.6785 11.2682H16.548H18.2202H25V10.4322H19.6683L25 7.35396V6.38844L17.9961 10.4322H15.899L25 5.17771V4.21225L15.0678 9.94667V0.5H14.2318ZM10.7682 14.7418C10.2863 14.7418 9.78216 14.7317 9.32133 14.7317H8.45195H6.77969H0V15.5678H5.3316L0 18.646V19.6115L7.00386 15.5678H9.10101L0 20.8222V21.7877L9.93217 16.0533V25.5H10.7682V15.5706V14.7418ZM14.2318 14.7418V15.5706V25.5H15.0678V16.0533L25 21.7877V20.8222L15.899 15.5678H17.9961L25 19.6115V18.646L19.6684 15.5678H25V14.7317H18.2203H16.5481H15.6787C15.15 14.7317 14.2318 14.7418 14.2318 14.7418Z" fill="white"/>
</svg>
