<svg width="25" height="25" viewBox="0 0 25 25" fill="none" xmlns="http://www.w3.org/2000/svg">
<g clip-path="url(#clip0_205_443)">
<path d="M24.0356 13.4396L15.8325 21.6428C15.1001 22.3752 13.8306 21.8625 13.8306 20.8127V16.1252H7.18994C6.54053 16.1252 6.01807 15.6027 6.01807 14.9533V10.2658C6.01807 9.61639 6.54053 9.09393 7.18994 9.09393H13.8306V4.40643C13.8306 3.36151 15.0952 2.84393 15.8325 3.57636L24.0356 11.7795C24.4897 12.2385 24.4897 12.9807 24.0356 13.4396ZM9.14307 21.3986V19.4455C9.14307 19.1232 8.87939 18.8596 8.55713 18.8596H4.45557C3.59131 18.8596 2.89307 18.1613 2.89307 17.2971V7.92206C2.89307 7.0578 3.59131 6.35956 4.45557 6.35956H8.55713C8.87939 6.35956 9.14307 6.09589 9.14307 5.77362V3.8205C9.14307 3.49823 8.87939 3.23456 8.55713 3.23456H4.45557C1.86768 3.23456 -0.231934 5.33417 -0.231934 7.92206V17.2971C-0.231934 19.885 1.86768 21.9846 4.45557 21.9846H8.55713C8.87939 21.9846 9.14307 21.7209 9.14307 21.3986Z" fill="#064789"/>
</g>
<defs>
<clipPath id="clip0_205_443">
<rect width="25" height="25" fill="white"/>
</clipPath>
</defs>
</svg>
