<svg width="25" height="26" viewBox="0 0 25 26" fill="none" xmlns="http://www.w3.org/2000/svg">
<g clip-path="url(#clip0_205_276)">
<path d="M18.7527 6.75H6.24992C5.21942 6.74985 4.20487 7.00451 3.2966 7.49131C2.38832 7.97811 1.61451 8.68193 1.04405 9.54013C0.473582 10.3983 0.124171 11.3843 0.0269194 12.4102C-0.0703321 13.4361 0.0875936 14.4701 0.486637 15.4202C0.88568 16.3703 1.51346 17.207 2.31408 17.8558C3.11471 18.5046 4.06333 18.9453 5.0755 19.1388C6.08767 19.3323 7.13199 19.2725 8.11546 18.9648C9.09894 18.6571 9.99107 18.1109 10.7124 17.375H14.2874C15.0087 18.1108 15.9007 18.6569 16.884 18.9647C17.8674 19.2725 18.9116 19.3323 19.9237 19.139C20.9357 18.9456 21.8843 18.505 22.685 17.8564C23.4856 17.2078 24.1135 16.3714 24.5127 15.4215C24.9119 14.4716 25.07 13.4377 24.9731 12.4119C24.8761 11.3861 24.527 10.4001 23.9569 9.54184C23.3868 8.68355 22.6133 7.97953 21.7053 7.49244C20.7974 7.00535 19.783 6.7503 18.7527 6.75ZM9.68742 13.4688C9.68742 13.5931 9.63803 13.7123 9.55012 13.8002C9.46222 13.8881 9.34299 13.9375 9.21867 13.9375H7.18742V15.9688C7.18742 16.0931 7.13803 16.2123 7.05012 16.3002C6.96222 16.3881 6.84299 16.4375 6.71867 16.4375H5.78117C5.65685 16.4375 5.53762 16.3881 5.44971 16.3002C5.3618 16.2123 5.31242 16.0931 5.31242 15.9688V13.9375H3.28117C3.15685 13.9375 3.03762 13.8881 2.94971 13.8002C2.8618 13.7123 2.81242 13.5931 2.81242 13.4688V12.5312C2.81242 12.4069 2.8618 12.2877 2.94971 12.1998C3.03762 12.1119 3.15685 12.0625 3.28117 12.0625H5.31242V10.0312C5.31242 9.90693 5.3618 9.7877 5.44971 9.69979C5.53762 9.61189 5.65685 9.5625 5.78117 9.5625H6.71867C6.84299 9.5625 6.96222 9.61189 7.05012 9.69979C7.13803 9.7877 7.18742 9.90693 7.18742 10.0312V12.0625H9.21867C9.34299 12.0625 9.46222 12.1119 9.55012 12.1998C9.63803 12.2877 9.68742 12.4069 9.68742 12.5312V13.4688ZM18.1249 16.4375C17.8159 16.4375 17.5138 16.3459 17.2568 16.1742C16.9999 16.0025 16.7996 15.7585 16.6814 15.4729C16.5631 15.1874 16.5322 14.8733 16.5924 14.5702C16.6527 14.2671 16.8015 13.9887 17.0201 13.7701C17.2386 13.5516 17.517 13.4028 17.8201 13.3425C18.1232 13.2822 18.4374 13.3132 18.7229 13.4314C19.0084 13.5497 19.2524 13.75 19.4241 14.0069C19.5958 14.2639 19.6874 14.566 19.6874 14.875C19.6874 15.2894 19.5228 15.6868 19.2298 15.9799C18.9367 16.2729 18.5393 16.4375 18.1249 16.4375ZM20.6249 12.6875C20.3159 12.6875 20.0138 12.5959 19.7568 12.4242C19.4999 12.2525 19.2996 12.0085 19.1814 11.7229C19.0631 11.4374 19.0322 11.1233 19.0924 10.8202C19.1527 10.5171 19.3015 10.2387 19.5201 10.0201C19.7386 9.80163 20.017 9.65281 20.3201 9.59252C20.6232 9.53223 20.9373 9.56318 21.2229 9.68144C21.5084 9.7997 21.7524 9.99997 21.9241 10.2569C22.0958 10.5139 22.1874 10.816 22.1874 11.125C22.1874 11.5394 22.0228 11.9368 21.7298 12.2299C21.4367 12.5229 21.0393 12.6875 20.6249 12.6875Z" fill="#064789"/>
</g>
<defs>
<clipPath id="clip0_205_276">
<rect width="25" height="25" fill="white" transform="translate(0 0.5)"/>
</clipPath>
</defs>
</svg>
