<svg width="50" height="50" viewBox="0 0 50 50" fill="none" xmlns="http://www.w3.org/2000/svg">
<path d="M25 1C11.767 1 1 11.767 1 25C1 38.233 11.767 49 25 49C38.233 49 49 38.233 49 25C49 11.767 38.233 1 25 1ZM27 3.095V5.586L23.586 9H22.414L17.673 4.259C19.966 3.446 22.431 3 25 3C25.675 3 26.341 3.035 27 3.095ZM3 25C3 20.14 4.587 15.645 7.266 12H15.586L18 14.414V18.586L14.586 22L17.586 25L15.586 27H8.524L11.324 34H20V39.586L15 44.586C7.884 40.938 3 33.531 3 25ZM25 47C22.158 47 19.443 46.452 16.947 45.467L22 40.414V32H12.677L11.477 29H16.415L20.415 25L17.415 22L20.001 19.414V13.586L16.414 10H8.927C10.831 7.961 13.116 6.284 15.669 5.083L21.586 11H24.414L29 6.414V3.371C31.663 3.862 34.161 4.829 36.397 6.188L29 13.586V22H34V33.414L40.835 40.249C36.831 44.406 31.214 47 25 47ZM42.159 38.745L36 32.586V20H31V14.414L38.086 7.328C43.491 11.34 47 17.767 47 25C47 30.198 45.184 34.976 42.159 38.745Z" fill="#064789"/>
</svg>
