<svg width="25" height="26" viewBox="0 0 25 26" fill="none" xmlns="http://www.w3.org/2000/svg">
<path d="M2.34375 6.94531H22.6562C23.0877 6.94531 23.4375 6.59556 23.4375 6.16406V4.21094C23.4375 3.77944 23.0877 3.42969 22.6562 3.42969H2.34375C1.91226 3.42969 1.5625 3.77944 1.5625 4.21094V6.16406C1.5625 6.59556 1.91226 6.94531 2.34375 6.94531ZM2.34375 14.7578H22.6562C23.0877 14.7578 23.4375 14.4081 23.4375 13.9766V12.0234C23.4375 11.5919 23.0877 11.2422 22.6562 11.2422H2.34375C1.91226 11.2422 1.5625 11.5919 1.5625 12.0234V13.9766C1.5625 14.4081 1.91226 14.7578 2.34375 14.7578ZM2.34375 22.5703H22.6562C23.0877 22.5703 23.4375 22.2206 23.4375 21.7891V19.8359C23.4375 19.4044 23.0877 19.0547 22.6562 19.0547H2.34375C1.91226 19.0547 1.5625 19.4044 1.5625 19.8359V21.7891C1.5625 22.2206 1.91226 22.5703 2.34375 22.5703Z" fill="#064789"/>
</svg>
