<svg width="25" height="25" viewBox="0 0 25 25" fill="none" xmlns="http://www.w3.org/2000/svg">
<path d="M23.5672 15.5246L21.4871 14.3234C21.6971 13.1906 21.6971 12.0285 21.4871 10.8957L23.5672 9.69453C23.8064 9.55782 23.9139 9.27461 23.8357 9.01094C23.2938 7.27266 22.3709 5.70039 21.1649 4.3918C20.9793 4.1916 20.6766 4.14278 20.4422 4.2795L18.3621 5.48067C17.4881 4.72871 16.4822 4.14766 15.3934 3.7668V1.36934C15.3934 1.0959 15.2029 0.856644 14.9344 0.79805C13.1424 0.397659 11.3065 0.417191 9.60235 0.79805C9.33379 0.856644 9.14337 1.0959 9.14337 1.36934V3.77168C8.05938 4.15743 7.05352 4.73848 6.17461 5.48555L4.09942 4.28438C3.86016 4.14766 3.56231 4.1916 3.37676 4.39668C2.17071 5.70039 1.24786 7.27266 0.705865 9.01582C0.622857 9.2795 0.735162 9.5627 0.97442 9.69942L3.0545 10.9006C2.84454 12.0334 2.84454 13.1955 3.0545 14.3283L0.97442 15.5295C0.735162 15.6662 0.62774 15.9494 0.705865 16.2131C1.24786 17.9514 2.17071 19.5236 3.37676 20.8322C3.56231 21.0324 3.86504 21.0813 4.09942 20.9445L6.1795 19.7434C7.05352 20.4953 8.05938 21.0764 9.14825 21.4572V23.8596C9.14825 24.133 9.33868 24.3723 9.60723 24.4309C11.3992 24.8313 13.2352 24.8117 14.9393 24.4309C15.2078 24.3723 15.3982 24.133 15.3982 23.8596V21.4572C16.4822 21.0715 17.4881 20.4904 18.367 19.7434L20.4471 20.9445C20.6863 21.0813 20.9842 21.0373 21.1697 20.8322C22.3758 19.5285 23.2986 17.9563 23.8406 16.2131C23.9139 15.9445 23.8064 15.6613 23.5672 15.5246ZM12.2684 16.5158C10.115 16.5158 8.36212 14.7629 8.36212 12.6096C8.36212 10.4563 10.115 8.70332 12.2684 8.70332C14.4217 8.70332 16.1746 10.4563 16.1746 12.6096C16.1746 14.7629 14.4217 16.5158 12.2684 16.5158Z" fill="#064789"/>
</svg>
