<svg width="25" height="25" viewBox="0 0 25 25" fill="none" xmlns="http://www.w3.org/2000/svg">
<path d="M23.6545 6.4975C23.8151 5.95497 23.6545 5.55566 22.882 5.55566H20.3255C19.6745 5.55566 19.375 5.89855 19.2144 6.28049C19.2144 6.28049 17.9123 9.45323 16.0721 11.5105C15.4774 12.1051 15.204 12.2961 14.8785 12.2961C14.7179 12.2961 14.4705 12.1051 14.4705 11.5626V6.4975C14.4705 5.84646 14.2882 5.55566 13.75 5.55566H9.73092C9.32294 5.55566 9.07988 5.85948 9.07988 6.1416C9.07988 6.75792 10 6.90115 10.0955 8.63726V12.4046C10.0955 13.2293 9.94794 13.3812 9.62242 13.3812C8.75436 13.3812 6.64499 10.1954 5.39499 6.54959C5.14325 5.84212 4.89585 5.55566 4.24047 5.55566H1.68405C0.954881 5.55566 0.807312 5.89855 0.807312 6.28049C0.807312 6.95757 1.67537 10.3213 4.84811 14.7657C6.96183 17.7996 9.93926 19.4446 12.6476 19.4446C14.2752 19.4446 14.4748 19.08 14.4748 18.4506C14.4748 15.5513 14.3273 15.2779 15.1432 15.2779C15.5209 15.2779 16.1719 15.4689 17.691 16.9315C19.4271 18.6676 19.7136 19.4446 20.6858 19.4446H23.2422C23.9714 19.4446 24.3403 19.08 24.1276 18.3595C23.6415 16.8447 20.3559 13.7284 20.2084 13.5201C19.8307 13.034 19.9393 12.8169 20.2084 12.3829C20.2127 12.3786 23.3334 7.98622 23.6545 6.4975V6.4975Z" fill="#064789"/>
</svg>
